<svg preserveAspectRatio="none" overflow="visible" style="display: block;" width="28" height="28" viewBox="0 0 28 28" fill="none" xmlns="http://www.w3.org/2000/svg">
<g id="IconCommercial">
<path id="Vector" d="M23.3333 8.16667H4.66667C3.378 8.16667 2.33333 9.21134 2.33333 10.5V22.1667C2.33333 23.4553 3.378 24.5 4.66667 24.5H23.3333C24.622 24.5 25.6667 23.4553 25.6667 22.1667V10.5C25.6667 9.21134 24.622 8.16667 23.3333 8.16667Z" stroke="#E02020" stroke-width="1.75" stroke-linecap="round" stroke-linejoin="round"/>
<path id="Vector_2" d="M18.6667 8.16667V5.83333C18.6667 5.2145 18.4208 4.621 17.9832 4.18342C17.5457 3.74583 16.9522 3.5 16.3333 3.5H11.6667C11.0478 3.5 10.4543 3.74583 10.0168 4.18342C9.57917 4.621 9.33333 5.2145 9.33333 5.83333V8.16667" stroke="#E02020" stroke-width="1.75" stroke-linecap="round" stroke-linejoin="round"/>
<path id="Vector_3" d="M14 14V18.6667" stroke="#E02020" stroke-width="1.75" stroke-linecap="round" stroke-linejoin="round"/>
<path id="Vector_4" d="M11.6667 16.3333H16.3333" stroke="#E02020" stroke-width="1.75" stroke-linecap="round" stroke-linejoin="round"/>
</g>
</svg>
